# xmcd
#
# Track frame offsets: 
#        150
#        14907
#        33197
#        52447
#        67470
#        87660
#        99780
#        117467
#        137987
#        158230
#        177497
#
# Disc length: 2582 seconds
#
# Revision: 0
# Processed by: cddbd v1.5.2PL0 Copyright (c) Steve Scherf et al.
# Submitted via: ExactAudioCopyFreeDBPlugin 1.0
#
DISCID=ab0a140b
DTITLE=J. Blackfoot - This Christmas
DYEAR=1997
DGENRE=Soul
TTITLE0=Chrismas Tree
TTITLE1=Hey! Merry
TTITLE2=This Chrismas
TTITLE3=He Shall Be Called Wonderful
TTITLE4=Ave maria (Schubert)
TTITLE5=Please Come Home For Chrismas
TTITLE6=He Shall Reign
TTITLE7=Santa's Got The Blues
TTITLE8=Ave Maria (Inst.)
TTITLE9=Christmas Medley
TTITLE10=Away In A Manger
EXTD=
EXTT0=
EXTT1=
EXTT2=
EXTT3=
EXTT4=
EXTT5=
EXTT6=
EXTT7=
EXTT8=
EXTT9=
EXTT10=
PLAYORDER=
